<svg width="20" height="20" viewBox="0 0 20 20" fill="none" xmlns="http://www.w3.org/2000/svg">
<path d="M6.66665 9.16658C6.20641 9.16658 5.83331 9.53968 5.83331 9.99992C5.83331 10.4602 6.20641 10.8333 6.66665 10.8333H13.3333C13.7935 10.8333 14.1666 10.4602 14.1666 9.99992C14.1666 9.53968 13.7935 9.16658 13.3333 9.16658H6.66665Z" fill="black" fill-opacity="0.75"/>
<path fill-rule="evenodd" clip-rule="evenodd" d="M9.99998 0.833252C4.93737 0.833252 0.833313 4.93731 0.833313 9.99992C0.833313 15.0625 4.93737 19.1666 9.99998 19.1666C15.0626 19.1666 19.1666 15.0625 19.1666 9.99992C19.1666 4.93731 15.0626 0.833252 9.99998 0.833252ZM2.49998 9.99992C2.49998 5.85778 5.85784 2.49992 9.99998 2.49992C14.1421 2.49992 17.5 5.85778 17.5 9.99992C17.5 14.1421 14.1421 17.4999 9.99998 17.4999C5.85784 17.4999 2.49998 14.1421 2.49998 9.99992Z" fill="black" fill-opacity="0.75"/>
</svg>
