<svg width="20" height="20" viewBox="0 0 20 20" fill="none" xmlns="http://www.w3.org/2000/svg">
<path d="M10 5.83325C10.4603 5.83325 10.8334 6.20635 10.8334 6.66658V9.16658H13.3334C13.7936 9.16658 14.1667 9.53968 14.1667 9.99992C14.1667 10.4602 13.7936 10.8333 13.3334 10.8333H10.8334V13.3333C10.8334 13.7935 10.4603 14.1666 10 14.1666C9.5398 14.1666 9.16671 13.7935 9.16671 13.3333V10.8333H6.66671C6.20647 10.8333 5.83337 10.4602 5.83337 9.99992C5.83337 9.53968 6.20647 9.16658 6.66671 9.16658H9.16671V6.66658C9.16671 6.20635 9.5398 5.83325 10 5.83325Z" fill="black" fill-opacity="0.75"/>
<path fill-rule="evenodd" clip-rule="evenodd" d="M0.833374 9.99992C0.833374 4.93731 4.93743 0.833252 10 0.833252C15.0626 0.833252 19.1667 4.93731 19.1667 9.99992C19.1667 15.0625 15.0626 19.1666 10 19.1666C4.93743 19.1666 0.833374 15.0625 0.833374 9.99992ZM10 2.49992C5.8579 2.49992 2.50004 5.85778 2.50004 9.99992C2.50004 14.1421 5.8579 17.4999 10 17.4999C14.1422 17.4999 17.5 14.1421 17.5 9.99992C17.5 5.85778 14.1422 2.49992 10 2.49992Z" fill="black" fill-opacity="0.75"/>
</svg>
