<svg width="20" height="20" viewBox="0 0 20 20" fill="none" xmlns="http://www.w3.org/2000/svg">
<g clip-path="url(#clip0_6_209)">
<path fill-rule="evenodd" clip-rule="evenodd" d="M5.87482 1.66675C4.43786 1.66675 3.05977 2.23757 2.04369 3.25365C1.02761 4.26973 0.456787 5.64783 0.456787 7.08478C0.456787 8.52173 1.02761 9.89982 2.04369 10.9159L9.41075 18.283C9.45143 18.3236 9.49527 18.3592 9.54148 18.3897C9.86496 18.6033 10.3045 18.5677 10.5893 18.283L17.9564 10.9159C18.9725 9.89982 19.5433 8.52173 19.5433 7.08478C19.5433 5.64783 18.9725 4.26973 17.9564 3.25365C16.9403 2.23757 15.5622 1.66675 14.1253 1.66675C12.6883 1.66675 11.3102 2.23757 10.2941 3.25365L10 3.54775L9.70594 3.25365C8.68986 2.23757 7.31177 1.66675 5.87482 1.66675ZM10.5893 5.31561C10.3045 5.60038 9.86496 5.63597 9.54148 5.4224C9.49527 5.39188 9.45143 5.35629 9.41075 5.31561L8.52737 4.43223C7.82387 3.72873 6.86972 3.3335 5.87482 3.3335C4.87992 3.3335 3.92576 3.72873 3.22226 4.43223C2.51876 5.13573 2.12354 6.08988 2.12354 7.08478C2.12354 8.07968 2.51876 9.03383 3.22226 9.73733L10 16.5151L16.7778 9.73733C17.4813 9.03383 17.8765 8.07968 17.8765 7.08478C17.8765 6.08988 17.4813 5.13573 16.7778 4.43223C16.0743 3.72873 15.1202 3.3335 14.1253 3.3335C13.1304 3.3335 12.1762 3.72873 11.4727 4.43223L10.5893 5.31561Z" fill="#CBCBD4"/>
</g>
<defs>
<clipPath id="clip0_6_209">
<rect width="20" height="20" fill="white"/>
</clipPath>
</defs>
</svg>
